<?xml version="1.0" standalone="no"?>
<!DOCTYPE svg PUBLIC "-//W3C//DTD SVG 20010904//EN"
 "http://www.w3.org/TR/2001/REC-SVG-20010904/DTD/svg10.dtd">
<svg version="1.0" xmlns="http://www.w3.org/2000/svg"
 width="518.000000pt" height="518.000000pt" viewBox="0 0 518.000000 518.000000"
 preserveAspectRatio="xMidYMid meet">
<metadata>
Created by potrace 1.14, written by Peter Selinger 2001-2017
</metadata>
<g transform="translate(0.000000,518.000000) scale(0.100000,-0.100000)"
fill="#000000" stroke="none">
<path d="M2191 4765 c-217 -61 -440 -229 -576 -435 -70 -107 -85 -145 -85
-222 0 -64 -2 -70 -56 -150 -60 -89 -141 -244 -167 -323 -36 -104 -59 -302
-78 -655 -6 -113 -14 -251 -17 -308 -4 -56 -5 -102 -2 -102 3 0 13 -13 22 -30
13 -23 15 -45 11 -105 -6 -73 -16 -94 -27 -57 -4 10 -22 45 -42 78 -22 36 -33
66 -30 79 5 19 4 18 -14 -3 -21 -26 -33 -103 -27 -177 3 -40 5 -45 11 -27 10
26 27 28 49 4 27 -30 36 -67 43 -184 4 -62 11 -123 15 -136 12 -31 11 -222 0
-222 -13 0 -46 48 -59 85 -10 29 -10 29 -11 5 -1 -37 44 -127 67 -134 17 -6
22 -19 27 -74 21 -198 98 -381 223 -533 86 -103 315 -328 401 -393 29 -22 64
-49 76 -58 54 -42 155 -82 270 -106 107 -22 145 -25 350 -26 226 -1 231 -1
305 26 153 55 421 210 610 352 178 134 305 301 419 551 31 68 45 89 58 88 10
-2 36 -6 58 -9 35 -5 46 -2 73 21 29 24 92 130 92 152 0 4 -17 -19 -38 -52
-44 -69 -81 -98 -120 -93 -20 2 -28 9 -30 27 -5 33 24 134 59 206 16 33 38
106 50 163 12 57 32 118 43 135 41 60 126 100 126 60 1 -16 2 -16 12 1 14 24
3 128 -17 164 l-15 27 6 -26 c5 -23 1 -28 -24 -37 -36 -12 -91 -68 -134 -135
-27 -42 -33 -47 -39 -31 -18 45 4 203 29 212 5 1 18 10 28 18 18 14 18 14 -4
4 -32 -15 -35 -10 -18 31 8 19 17 79 20 134 4 55 14 199 23 320 29 405 6 618
-88 829 -38 85 -41 97 -41 186 l0 95 68 23 c83 27 98 40 86 73 -32 82 -228
282 -343 350 -111 64 -190 94 -461 174 -48 14 -88 30 -90 35 -4 13 -96 47
-193 70 -94 23 -187 25 -268 6 -57 -13 -59 -13 -175 27 -111 38 -124 41 -252
44 -98 2 -150 -1 -189 -12z m89 -945 c279 -15 347 -28 507 -101 23 -10 44 -19
47 -19 8 0 140 -64 146 -70 3 -3 21 -13 40 -23 35 -16 69 -39 133 -90 27 -21
41 -26 61 -21 24 6 26 11 26 58 0 28 6 60 14 71 7 11 16 37 20 58 4 20 10 37
14 37 19 0 100 -67 212 -175 82 -79 113 -77 153 12 l26 57 32 -35 c17 -19 42
-50 55 -69 13 -19 32 -46 42 -60 51 -69 63 -94 77 -153 24 -102 21 -329 -5
-376 -4 -9 -9 -34 -11 -56 -2 -22 -10 -46 -17 -54 -11 -12 -11 -15 0 -22 10
-7 10 -9 0 -9 -7 0 -12 -6 -11 -12 2 -7 -1 -36 -5 -64 -15 -101 -17 -164 -15
-414 4 -469 4 -478 -26 -577 -14 -48 -35 -106 -45 -128 -59 -131 -91 -193
-109 -212 -12 -12 -21 -25 -21 -29 0 -15 -79 -104 -190 -215 -103 -102 -145
-136 -288 -232 -18 -12 -72 -52 -120 -88 -157 -118 -197 -133 -380 -145 -223
-14 -481 36 -627 121 -36 22 -395 383 -457 460 -92 116 -174 292 -220 470 -18
74 -22 116 -22 235 1 80 4 159 8 175 4 17 12 53 16 80 5 28 15 84 23 125 17
81 23 134 33 275 3 49 7 98 9 110 1 11 6 47 10 80 3 33 13 88 21 123 8 35 14
111 14 169 0 115 18 389 27 413 3 8 7 25 9 37 4 34 45 97 98 153 52 55 130 99
217 124 99 28 66 27 479 6z"/>
<path d="M1616 3029 c-81 -19 -167 -109 -145 -151 13 -24 28 -23 95 7 72 32
125 32 341 0 204 -30 214 -30 247 -4 34 27 37 80 4 97 -31 15 -168 38 -302 51
-127 13 -186 13 -240 0z"/>
<path d="M2961 2951 c-93 -12 -115 -54 -55 -108 24 -22 28 -22 302 -20 l277 2
81 -39 c92 -43 124 -43 124 2 0 19 -15 40 -56 78 -85 78 -121 86 -389 89 -121
2 -249 0 -284 -4z"/>
<path d="M1695 2562 c-75 -20 -160 -61 -186 -89 -9 -10 -26 -26 -38 -35 -26
-22 -28 -64 -3 -77 15 -8 22 -4 35 18 16 28 133 98 144 87 4 -3 2 -22 -4 -41
-13 -40 5 -137 28 -160 14 -14 54 -20 195 -31 l81 -7 46 45 c47 44 57 44 57
-3 0 -32 30 -21 46 16 7 19 14 60 14 91 0 40 4 55 13 52 17 -6 77 -99 77 -120
0 -29 60 -1 75 35 22 52 -14 147 -55 147 -11 0 -21 0 -22 0 -25 5 -94 24 -178
49 -135 40 -232 47 -325 23z m143 -75 c6 -55 -44 -76 -86 -37 -31 29 -26 53
13 63 46 12 70 3 73 -26z"/>
<path d="M3125 2499 c-72 -7 -198 -40 -242 -62 -66 -35 -92 -107 -54 -156 l18
-23 13 33 c16 41 65 95 102 115 15 8 29 14 31 14 2 0 -2 -25 -10 -55 -11 -44
-12 -67 -3 -108 6 -29 14 -57 18 -63 10 -15 160 -44 229 -44 64 0 110 23 141
72 l20 31 8 -24 c4 -13 7 -34 5 -46 -1 -13 1 -23 6 -23 30 1 53 48 62 132 l6
57 45 -30 c25 -17 56 -41 71 -55 32 -31 49 -31 49 0 0 32 -111 135 -183 169
-122 60 -215 78 -332 66z m43 -61 c29 -29 2 -88 -39 -88 -30 0 -61 37 -53 63
4 12 12 25 18 29 17 12 61 9 74 -4z"/>
<path d="M2236 1917 c-59 -77 -73 -191 -33 -267 25 -48 68 -75 166 -106 106
-33 252 2 311 76 53 67 59 176 12 222 -19 19 -19 19 -26 -28 -11 -84 -40 -129
-99 -155 -77 -34 -166 -32 -242 6 -32 16 -64 40 -72 52 -21 32 -19 109 6 170
24 62 13 77 -23 30z"/>
<path d="M1889 1453 c5 -10 27 -36 48 -58 21 -23 47 -57 57 -78 11 -20 22 -37
25 -37 3 0 24 -16 46 -35 61 -54 111 -86 137 -89 13 -2 62 -11 110 -21 48 -9
93 -15 100 -12 7 2 -5 8 -27 12 -96 17 -216 68 -236 100 -11 18 -11 19 5 6 10
-8 25 -16 34 -17 10 0 46 -7 82 -14 106 -20 353 -18 430 4 36 10 70 19 75 20
6 2 19 7 30 11 11 4 46 18 77 30 60 24 134 71 159 101 16 19 23 20 -146 -7
-126 -20 -496 -17 -630 5 -126 20 -335 72 -349 86 -18 18 -38 12 -27 -7z"/>
<path d="M2760 1188 c-14 -5 -65 -20 -115 -33 -49 -13 -78 -24 -64 -25 35 0
157 33 194 53 33 18 24 21 -15 5z"/>
<path d="M1113 2240 c0 -36 2 -50 4 -32 2 17 2 47 0 65 -2 17 -4 3 -4 -33z"/>
<path d="M4266 2114 c-3 -26 -4 -49 -2 -52 3 -2 8 17 11 43 4 25 5 48 3 51 -3
2 -8 -17 -12 -42z"/>
<path d="M1122 2080 c0 -19 2 -27 5 -17 2 9 2 25 0 35 -3 9 -5 1 -5 -18z"/>
<path d="M4251 2034 c0 -11 3 -14 6 -6 3 7 2 16 -1 19 -3 4 -6 -2 -5 -13z"/>
<path d="M1132 2015 c0 -16 2 -22 5 -12 2 9 2 23 0 30 -3 6 -5 -1 -5 -18z"/>
<path d="M4241 1984 c0 -11 3 -14 6 -6 3 7 2 16 -1 19 -3 4 -6 -2 -5 -13z"/>
<path d="M1141 1924 c0 -11 3 -14 6 -6 3 7 2 16 -1 19 -3 4 -6 -2 -5 -13z"/>
<path d="M4181 1764 c0 -11 3 -14 6 -6 3 7 2 16 -1 19 -3 4 -6 -2 -5 -13z"/>
</g>
</svg>
