<?xml version="1.0" standalone="no"?>
<!DOCTYPE svg PUBLIC "-//W3C//DTD SVG 20010904//EN"
 "http://www.w3.org/TR/2001/REC-SVG-20010904/DTD/svg10.dtd">
<svg version="1.0" xmlns="http://www.w3.org/2000/svg"
 width="700.000000pt" height="700.000000pt" viewBox="0 0 700.000000 700.000000"
 preserveAspectRatio="xMidYMid meet">
<metadata>
Created by potrace 1.14, written by Peter Selinger 2001-2017
</metadata>
<g transform="translate(0.000000,700.000000) scale(0.100000,-0.100000)"
fill="#000000" stroke="none">
<path d="M1410 6993 c-100 -10 -237 -39 -340 -73 -538 -175 -928 -618 -1042
-1183 l-23 -112 0 -2125 0 -2125 23 -112 c65 -321 211 -592 438 -815 180 -177
368 -291 604 -368 248 -81 53 -75 2435 -75 l2120 0 112 23 c631 128 1107 604
1235 1235 l23 112 0 2125 0 2125 -23 112 c-128 633 -593 1100 -1229 1235
l-108 23 -2095 1 c-1152 1 -2111 -1 -2130 -3z m1666 -1949 c213 -37 390 -133
529 -286 31 -35 71 -87 88 -116 18 -28 34 -51 38 -50 3 2 35 39 70 83 155 192
410 337 664 375 102 15 308 15 411 0 415 -63 690 -332 801 -785 15 -63 17
-176 20 -1198 l4 -1127 -338 2 -338 3 -5 1015 -5 1015 -23 75 c-34 109 -78
185 -149 256 -110 110 -255 161 -428 150 -103 -6 -161 -22 -248 -68 -90 -48
-167 -129 -216 -230 -80 -164 -75 -82 -79 -1210 l-3 -1008 -334 0 -334 0 -4
998 c-3 992 -3 997 -25 1081 -61 232 -208 382 -417 426 -266 56 -516 -54 -628
-276 -76 -149 -71 -68 -77 -1204 l-5 -1020 -340 0 -340 0 -3 1523 -2 1522 300
0 300 0 0 -161 0 -162 85 82 c269 258 639 364 1031 295z"/>
</g>
</svg>
